<svg id="Layer_1" data-name="Layer 1" xmlns="http://www.w3.org/2000/svg" viewBox="0 0 841.41 759.78"><defs><style>.cls-1{fill:#1b499b;}</style></defs><title>HDH</title><path class="cls-1" d="M865.45,783.18c-16,34.19-55,49.62-89.23,36.38C649.91,914.71,497.72,944.37,340,899.13a309.57,309.57,0,0,1-71.25-26.5c-82.92-42.35-140.25-115.44-148.62-190.36q-.49-4.5-.78-9.17c0-.24,0-.49,0-.74V406.9h60.09v111H299.92v-111H360V673.1H299.92v-105H179.38v62a214,214,0,0,0,0,38.31c.13,1.59.29,3.19.46,4.8,5.77,49.57,33.54,92,80.54,124.5,57.62,39.31,125,59.59,200.39,58.53C571.65,855,658,829.8,734.41,774.18c-4.94-15.24-4.21-33.24,3.24-50.62,16.63-35.31,58.41-50.71,93.72-34.09l2.23,1.14C867.22,707.78,881.5,749,865.45,783.18Z" transform="translate(-119.29 -160.11)"/><path class="cls-1" d="M960.71,407.64V673.1H900.63v-105H780.08v105H720V406.9h60.08v111H900.63V411.7s0-.08,0-.12c-.13-1.59-.29-3.19-.46-4.8-5.77-49.57-33.54-92-80.54-124.5C762,243,694.65,222.69,619.23,223.75,508.35,225,422,250.2,345.59,305.82c4.94,15.24,4.21,33.24-3.24,50.62-16.63,35.31-58.41,50.71-93.72,34.09l-2.23-1.14c-33.62-17.17-47.9-58.38-31.85-92.57s55-49.62,89.23-36.38C430.09,165.29,582.28,135.63,740,180.87a309.57,309.57,0,0,1,71.25,26.5c82.92,42.35,140.25,115.44,148.62,190.36q.5,4.5.78,9.17C960.68,407.14,960.7,407.39,960.71,407.64Z" transform="translate(-119.29 -160.11)"/><path class="cls-1" d="M661.19,486a124.79,124.79,0,0,0-28.71-42,128.26,128.26,0,0,0-44.31-27.38q-25.86-9.69-56.66-9.7H418.57V673.1H529.23q31.56,0,57.61-9.7A131.72,131.72,0,0,0,631.71,636,124,124,0,0,0,661,593.81q10.46-24.52,10.45-53.81Q671.45,510.35,661.19,486Zm-82.4-31.25v0a10,10,0,0,1,5,1.13c5.92,3.39,8.48,16.3,6.48,32.9-.48,4.09-1.26,8.39-2.22,12.78a210.88,210.88,0,0,0-27.6-4.74,211,211,0,0,0-18.08-21.73C556.47,462,569.75,454.77,578.79,454.75ZM497,562.28q3.06,5.21,6.26,10.17c-6.17-.92-12.13-2.05-17.82-3.44,1.61-5.6,3.61-11.38,5.87-17.17C493.08,555.32,495,558.8,497,562.28ZM485.3,511c5.69-1.35,11.69-2.52,17.91-3.43-2.13,3.34-4.26,6.78-6.26,10.3s-3.87,7-5.65,10.43C489,522.51,487,516.68,485.3,511Zm11.08,29.12c2.7-5.82,5.74-11.65,9-17.34,3.39-5.87,6.87-11.43,10.47-16.6q9.72-.85,19.65-.87c6.56,0,13.13.3,19.56.82q5.41,7.77,10.52,16.52,4.95,8.54,9,17.3c-2.74,5.82-5.74,11.65-9,17.34-3.39,5.87-6.87,11.43-10.47,16.6q-9.72.86-19.65.87c-6.56,0-13.13-.3-19.56-.82q-5.42-7.76-10.52-16.52Q500.47,548.92,496.38,540.15Zm77.63,22c2-3.48,3.87-7,5.65-10.48,2.35,5.82,4.35,11.65,6,17.3-5.7,1.39-11.69,2.56-17.91,3.48C569.88,569.1,572,565.67,574,562.15Zm0-44.38c-2-3.48-4.13-6.87-6.26-10.17,6.17.91,12.12,2,17.82,3.43-1.61,5.61-3.61,11.39-5.87,17.17C577.88,524.72,576,521.25,574,517.77ZM535.37,482a178.6,178.6,0,0,1,12.08,13.91c-3.91-.18-7.91-.31-12-.31s-8.13.09-12.08.31A167.88,167.88,0,0,1,535.37,482ZM487,456.09a9.72,9.72,0,0,1,5-1.13v0c9,0,22.34,7.17,36.51,20.25a206,206,0,0,0-17.95,21.69,204.05,204.05,0,0,0-27.64,4.78c-1-4.34-1.74-8.56-2.26-12.6C478.61,472.44,481.13,459.53,487,456.09ZM463.87,562c-15.38-6.57-25.34-15.17-25.34-22s10-15.47,25.34-22c3.74-1.61,7.82-3,12-4.39a209.2,209.2,0,0,0,9.78,26.47A206.26,206.26,0,0,0,476,566.45C471.74,565.1,467.65,563.62,463.87,562Zm28.3,63.28a10.29,10.29,0,0,1-4.91-1.18c-5.92-3.39-8.48-16.29-6.48-32.9.48-4.08,1.26-8.39,2.22-12.78a209.22,209.22,0,0,0,27.6,4.74,211,211,0,0,0,18.08,21.73C514.51,618.08,501.21,625.3,492.17,625.3Zm31.33-41.16c3.92.17,7.91.3,12,.3s8.12-.08,12.08-.3a171.22,171.22,0,0,1-11.95,13.91A180.24,180.24,0,0,1,523.5,584.14ZM584,624a9.72,9.72,0,0,1-5,1.13c-9,0-22.34-7.17-36.51-20.25a206,206,0,0,0,18-21.69,202.5,202.5,0,0,0,27.64-4.78A121.76,121.76,0,0,1,590.35,591C592.39,607.61,589.87,620.52,584,624ZM607.09,562c-3.74,1.6-7.83,3-12,4.38a209.65,209.65,0,0,0-9.78-26.46,208.92,208.92,0,0,0,9.65-26.34c4.3,1.34,8.38,2.82,12.21,4.43,15.38,6.56,25.34,15.17,25.34,22S622.47,555.5,607.09,562Z" transform="translate(-119.29 -160.11)"/><path class="cls-1" d="M492,445.23Z" transform="translate(-119.29 -160.11)"/><path class="cls-1" d="M555.32,540a19.87,19.87,0,1,1-19.86-19.86A19.87,19.87,0,0,1,555.32,540Z" transform="translate(-119.29 -160.11)"/><path class="cls-1" d="M578.75,445.1Z" transform="translate(-119.29 -160.11)"/></svg>