<svg id="Layer_1" data-name="Layer 1" xmlns="http://www.w3.org/2000/svg" viewBox="0 0 107.75 5.24"><defs><style>.cls-1{fill:#343434;}.cls-2{fill:#d9c4b1;}</style></defs><title>ticket-bottom</title><path class="cls-1" d="M10.16,4.7a2.469,2.469,0,0,1-.05.54H3.28a2.469,2.469,0,0,1-.05-.54,3.465,3.465,0,0,1,6.93,0Z" transform="translate(0 0)"/><path class="cls-1" d="M19.6,4.7a2.469,2.469,0,0,1-.05.54H12.71a2.469,2.469,0,0,1-.05-.54,3.47,3.47,0,0,1,6.94,0Z" transform="translate(0 0)"/><path class="cls-1" d="M29.03,4.7a2.469,2.469,0,0,1-.05.54H22.15a2.469,2.469,0,0,1-.05-.54,3.465,3.465,0,0,1,6.93,0Z" transform="translate(0 0)"/><path class="cls-1" d="M38.47,4.7a2.469,2.469,0,0,1-.05.54H31.58a2.469,2.469,0,0,1-.05-.54,3.47,3.47,0,0,1,6.94,0Z" transform="translate(0 0)"/><path class="cls-1" d="M47.91,4.7a2.469,2.469,0,0,1-.05.54H41.02a2.469,2.469,0,0,1-.05-.54,3.47,3.47,0,0,1,6.94,0Z" transform="translate(0 0)"/><path class="cls-1" d="M57.34,4.7a2.469,2.469,0,0,1-.05.54H50.46a2.469,2.469,0,0,1-.05-.54,3.465,3.465,0,0,1,6.93,0Z" transform="translate(0 0)"/><path class="cls-1" d="M66.78,4.7a2.469,2.469,0,0,1-.05.54H59.89a2.469,2.469,0,0,1-.05-.54,3.47,3.47,0,0,1,6.94,0Z" transform="translate(0 0)"/><path class="cls-1" d="M76.21,4.7a2.469,2.469,0,0,1-.05.54H69.33a2.469,2.469,0,0,1-.05-.54,3.465,3.465,0,0,1,6.93,0Z" transform="translate(0 0)"/><path class="cls-1" d="M85.65,4.7a2.469,2.469,0,0,1-.05.54H78.76a2.469,2.469,0,0,1-.05-.54,3.47,3.47,0,0,1,6.94,0Z" transform="translate(0 0)"/><path class="cls-1" d="M95.09,4.7a2.469,2.469,0,0,1-.05.54H88.2a2.469,2.469,0,0,1-.05-.54,3.47,3.47,0,0,1,6.94,0Z" transform="translate(0 0)"/><path class="cls-1" d="M104.52,4.7a2.469,2.469,0,0,1-.05.54H97.64a2.469,2.469,0,0,1-.05-.54,3.465,3.465,0,0,1,6.93,0Z" transform="translate(0 0)"/><path class="cls-2" d="M0,5.24V0H107.75V5.24h-3.28a2.469,2.469,0,0,0,.05-.54,3.465,3.465,0,0,0-6.93,0,2.469,2.469,0,0,0,.05.54h-2.6a2.469,2.469,0,0,0,.05-.54,3.47,3.47,0,0,0-6.94,0,2.469,2.469,0,0,0,.05.54H85.6a2.469,2.469,0,0,0,.05-.54,3.47,3.47,0,0,0-6.94,0,2.469,2.469,0,0,0,.05.54h-2.6a2.469,2.469,0,0,0,.05-.54,3.465,3.465,0,0,0-6.93,0,2.469,2.469,0,0,0,.05.54h-2.6a2.469,2.469,0,0,0,.05-.54,3.47,3.47,0,0,0-6.94,0,2.469,2.469,0,0,0,.05.54h-2.6a2.469,2.469,0,0,0,.05-.54,3.465,3.465,0,0,0-6.93,0,2.469,2.469,0,0,0,.05.54h-2.6a2.469,2.469,0,0,0,.05-.54,3.47,3.47,0,0,0-6.94,0,2.469,2.469,0,0,0,.05.54h-2.6a2.469,2.469,0,0,0,.05-.54,3.47,3.47,0,0,0-6.94,0,2.469,2.469,0,0,0,.05.54h-2.6a2.469,2.469,0,0,0,.05-.54,3.465,3.465,0,0,0-6.93,0,2.469,2.469,0,0,0,.05.54h-2.6a2.469,2.469,0,0,0,.05-.54,3.47,3.47,0,0,0-6.94,0,2.469,2.469,0,0,0,.05.54h-2.6a2.469,2.469,0,0,0,.05-.54,3.465,3.465,0,0,0-6.93,0,2.469,2.469,0,0,0,.05.54Z" transform="translate(0 0)"/></svg>