<svg id="Layer_1" data-name="Layer 1" xmlns="http://www.w3.org/2000/svg" viewBox="0 0 107.75 5.24"><defs><style>.cls-1{fill:#343434;}.cls-2{fill:#d9c4b1;}</style></defs><title>ticket-top</title><path class="cls-1" d="M97.59.54A2.469,2.469,0,0,1,97.64,0h6.83a2.469,2.469,0,0,1,.05.54,3.465,3.465,0,0,1-6.93,0Z" transform="translate(0 0)"/><path class="cls-1" d="M88.15.54A2.469,2.469,0,0,1,88.2,0h6.84a2.469,2.469,0,0,1,.05.54A3.463,3.463,0,0,1,91.62,4,3.47,3.47,0,0,1,88.15.54Z" transform="translate(0 0)"/><path class="cls-1" d="M78.72.54A2.469,2.469,0,0,1,78.77,0H85.6a2.469,2.469,0,0,1,.05.54,3.465,3.465,0,0,1-6.93,0Z" transform="translate(0 0)"/><path class="cls-1" d="M69.28.54A2.469,2.469,0,0,1,69.33,0h6.84a2.469,2.469,0,0,1,.05.54A3.47,3.47,0,0,1,72.75,4,3.463,3.463,0,0,1,69.28.54Z" transform="translate(0 0)"/><path class="cls-1" d="M59.84.54A2.469,2.469,0,0,1,59.89,0h6.84a2.469,2.469,0,0,1,.05.54A3.463,3.463,0,0,1,63.31,4,3.47,3.47,0,0,1,59.84.54Z" transform="translate(0 0)"/><path class="cls-1" d="M50.41.54A2.469,2.469,0,0,1,50.46,0h6.83a2.469,2.469,0,0,1,.05.54,3.465,3.465,0,0,1-6.93,0Z" transform="translate(0 0)"/><path class="cls-1" d="M40.97.54A2.469,2.469,0,0,1,41.02,0h6.84a2.469,2.469,0,0,1,.05.54,3.47,3.47,0,0,1-6.94,0Z" transform="translate(0 0)"/><path class="cls-1" d="M31.54.54A2.469,2.469,0,0,1,31.59,0h6.83a2.469,2.469,0,0,1,.05.54,3.465,3.465,0,0,1-6.93,0Z" transform="translate(0 0)"/><path class="cls-1" d="M22.1.54A2.469,2.469,0,0,1,22.15,0h6.84a2.469,2.469,0,0,1,.05.54A3.47,3.47,0,0,1,25.57,4,3.463,3.463,0,0,1,22.1.54Z" transform="translate(0 0)"/><path class="cls-1" d="M12.66.54A2.469,2.469,0,0,1,12.71,0h6.84a2.469,2.469,0,0,1,.05.54A3.463,3.463,0,0,1,16.13,4,3.47,3.47,0,0,1,12.66.54Z" transform="translate(0 0)"/><path class="cls-1" d="M3.23.54A2.469,2.469,0,0,1,3.28,0h6.83a2.469,2.469,0,0,1,.05.54,3.465,3.465,0,0,1-6.93,0Z" transform="translate(0 0)"/><path class="cls-2" d="M107.75,0V5.24H0V0H3.28a2.469,2.469,0,0,0-.05.54,3.465,3.465,0,0,0,6.93,0A2.469,2.469,0,0,0,10.11,0h2.6a2.469,2.469,0,0,0-.05.54A3.47,3.47,0,0,0,16.13,4,3.463,3.463,0,0,0,19.6.54,2.469,2.469,0,0,0,19.55,0h2.6a2.469,2.469,0,0,0-.05.54A3.463,3.463,0,0,0,25.57,4,3.47,3.47,0,0,0,29.04.54,2.469,2.469,0,0,0,28.99,0h2.6a2.469,2.469,0,0,0-.05.54,3.465,3.465,0,0,0,6.93,0A2.469,2.469,0,0,0,38.42,0h2.6a2.469,2.469,0,0,0-.05.54,3.47,3.47,0,0,0,6.94,0A2.469,2.469,0,0,0,47.86,0h2.6a2.469,2.469,0,0,0-.05.54,3.465,3.465,0,0,0,6.93,0A2.469,2.469,0,0,0,57.29,0h2.6a2.469,2.469,0,0,0-.05.54A3.47,3.47,0,0,0,63.31,4,3.463,3.463,0,0,0,66.78.54,2.469,2.469,0,0,0,66.73,0h2.6a2.469,2.469,0,0,0-.05.54A3.463,3.463,0,0,0,72.75,4,3.47,3.47,0,0,0,76.22.54,2.469,2.469,0,0,0,76.17,0h2.6a2.469,2.469,0,0,0-.05.54,3.465,3.465,0,0,0,6.93,0A2.469,2.469,0,0,0,85.6,0h2.6a2.469,2.469,0,0,0-.05.54A3.47,3.47,0,0,0,91.62,4,3.463,3.463,0,0,0,95.09.54,2.469,2.469,0,0,0,95.04,0h2.6a2.469,2.469,0,0,0-.05.54,3.465,3.465,0,0,0,6.93,0,2.469,2.469,0,0,0-.05-.54Z" transform="translate(0 0)"/></svg>