<svg id="Layer_1" data-name="Layer 1" xmlns="http://www.w3.org/2000/svg" viewBox="0 0 20.53 29.01"><defs><style>.cls-1{fill:#323335;}</style></defs><title>cinema-camera</title><path class="cls-1" d="M20.53,6.6a4.938,4.938,0,0,0-9.02-2.78,5.774,5.774,0,1,0-6.04,7.69v.16H3.81v1.58H2.43L0,11.5v8.09l2.43-1.75H3.81v1.57H6.3v1.91H9.48L4.12,28.59a1,1,0,0,0-.19.42H6.34l3.68-5.02v5.02h2.04V23.99l3.68,5.02h2.41a1,1,0,0,0-.19-.42L12.6,21.32h3.53V19.41h2.5V11.67H16.11v-.15A4.945,4.945,0,0,0,20.53,6.6ZM18.59,8.88,16.83,7.12h2.49A3.78,3.78,0,0,1,18.59,8.88Zm.73-2.79H16.83l1.76-1.76A3.737,3.737,0,0,1,19.32,6.09ZM16.11,2.87a3.824,3.824,0,0,1,1.76.73L16.11,5.36Zm0,4.98,1.76,1.76a3.824,3.824,0,0,1-1.76.73ZM2.56,3.11,4.62,5.17H1.71A4.5,4.5,0,0,1,2.56,3.11ZM1.71,6.37H4.62L2.56,8.43A4.5,4.5,0,0,1,1.71,6.37Zm3.76,3.76a4.394,4.394,0,0,1-2.06-.85L5.47,7.22Zm0-5.81L3.41,2.26a4.394,4.394,0,0,1,2.06-.85Zm7.12.01,1.76,1.76H11.86A3.737,3.737,0,0,1,12.59,4.33ZM6.67,1.41a4.394,4.394,0,0,1,2.06.85L6.67,4.32ZM8.57,9.4H6.67V7.22L8.73,9.28C8.68,9.32,8.62,9.36,8.57,9.4Zm1.01-.97L7.52,6.37h2.91A4.294,4.294,0,0,1,9.58,8.43ZM7.52,5.17,9.58,3.11a4.294,4.294,0,0,1,.85,2.06ZM10.57,9.4a7.847,7.847,0,0,0,.52-.76,4.773,4.773,0,0,0,.43.76Zm2.02-.52a3.78,3.78,0,0,1-.73-1.76h2.49Zm2.49.52H13.53l1.55-1.55Zm0-4.04L13.32,3.6a3.737,3.737,0,0,1,1.76-.73Z"/></svg>