<svg id="Layer_1" data-name="Layer 1" xmlns="http://www.w3.org/2000/svg" viewBox="0 0 507.858 511.993"><defs><style>.cls-1{fill:#323335;}</style></defs><title>popcorn</title><path class="cls-1" d="M494.762,190.811h15.167L497.42,145.885H385.835V70.018l49.732-49.911-17-17L361.786,60.058h0v85.827H313.055c-.142-7.185-1.568-23.9-11.81-23.49-12.842.513-6.972-34.877-18.762-33.932a5.583,5.583,0,0,0-1.468.041,17.181,17.181,0,0,1-2.274.218c-11.805-.222-24.283-11.436-11.388-20.033C281.431,59.3,265.789,52,248.582,41.576a21.3,21.3,0,0,0-11.9-3.426c-11.228-.225-19.806,9.443-30.23,8.641-4.239-.326-5.572-2.182-6.046-5.153l1.067.643c-1.4-6.366,2.434-18.648-12.534-31.989C180.677,2.928,172.911-.1,166.019.009h-.089c-.063,0-.127,0-.19,0-10.983-.149-19.812,7.627-24.986,18.624C132.411,36.367,130.326,35.32,105.3,31.67S76.62,56.7,60.978,72.34c0,0-10.663-2.088-21.533,11.026A31.072,31.072,0,0,0,32.3,105.188c-2.607,16.685-9.907,9.907-19.814,22.421s6.257,21.378,6.257,21.378l229.238.09-.006.024H2.071L48.674,512H293.022l0-.039,24.544-.02H464.083l30.776-321.1h-.1Zm-35.928,0,0,.03H395.2l.021-.03Zm-201.6.03,0-.03h86.532l-.021.03Z" transform="translate(-2.071 -0.007)"/></svg>